<svg width="40" height="40" viewBox="0 0 40 40" fill="none" xmlns="http://www.w3.org/2000/svg">
<path d="M16.0645 27.9999H13.6258C13.1946 27.9999 12.7811 27.8313 12.4762 27.5313C12.1713 27.2312 12 26.8243 12 26.3999V20.7999C12 20.3756 12.1713 19.9686 12.4762 19.6686C12.7811 19.3685 13.1946 19.2 13.6258 19.2H16.0645M21.7548 17.6V14.4C21.7548 13.7635 21.4979 13.153 21.0405 12.7029C20.5832 12.2529 19.9629 12 19.3161 12L16.0645 19.2V27.9999H25.234C25.6261 28.0043 26.0066 27.869 26.3053 27.6191C26.6041 27.3692 26.801 27.0214 26.8598 26.6399L27.9816 19.44C28.017 19.2106 28.0012 18.9765 27.9355 18.7538C27.8698 18.531 27.7557 18.325 27.601 18.15C27.4464 17.9749 27.2549 17.8351 27.0399 17.7401C26.8249 17.6452 26.5915 17.5973 26.3558 17.6H21.7548Z" stroke="white" stroke-width="2" stroke-linecap="round" stroke-linejoin="round"/>
<rect x="0.5" y="0.5" width="39" height="39" rx="19.5" stroke="white"/>
</svg>
