<svg width="40" height="40" viewBox="0 0 40 40" fill="none" xmlns="http://www.w3.org/2000/svg">
<path d="M23.9355 12.0003H26.1059C26.566 11.9923 27.0131 12.1508 27.3622 12.4457C27.7114 12.7407 27.9383 13.1515 28 13.6003V19.2002C27.9383 19.6489 27.7114 20.0597 27.3622 20.3547C27.0131 20.6496 26.566 20.8081 26.1059 20.8001H23.9355M18.2452 22.4001V25.6C18.2452 26.2366 18.5021 26.847 18.9595 27.2971C19.4168 27.7471 20.0371 28 20.6839 28L23.9355 20.8001V12.0003H14.766C14.3739 11.9959 13.9934 12.1312 13.6947 12.3811C13.3959 12.631 13.199 12.9787 13.1402 13.3603L12.0184 20.5601C11.983 20.7894 11.9988 21.0236 12.0645 21.2463C12.1302 21.4691 12.2443 21.6751 12.399 21.8501C12.5536 22.0251 12.7451 22.165 12.9601 22.2599C13.1751 22.3549 13.4085 22.4027 13.6442 22.4001H18.2452Z" stroke="white" stroke-width="2" stroke-linecap="round" stroke-linejoin="round"/>
<rect x="0.5" y="0.5" width="39" height="39" rx="19.5" stroke="white"/>
</svg>
